# xmcd CD database file
# Copyright (C) 1993-1998 Ti Kan
# 
# Track frame offsets:
#     150
#     11160
#     29340
#     41160
#     53110
#     65415
#     75912
#     90092
#     102437
#     115312
#     132835
#     140880
# 
# Disc length: 2027 seconds
# 
# Revision: 1
# Processed by: cddbd v1.4b41PL1 Copyright (c) Steve Scherf et al.
# Submitted via: DiscPlay 4.0.4
# 
DISCID=9c07e90c
DTITLE=Scott Vestal, Aubrey Haynie, Adam Steffey Wayne Benson Barry Bales, C
DTITLE=lay Jones - Bluegrass '95
DYEAR=1900
DGENRE=
TTITLE0=Paddy on the Turnpike
TTITLE1=Lockwood
TTITLE2=Big Sandy River
TTITLE3=Temperance Reel
TTITLE4=Daley's Reel
TTITLE5=Pike County Breakdown
TTITLE6=Cattle In the Cane
TTITLE7=Goodbye Liza Jane
TTITLE8=Whiskey Before Breakfast
TTITLE9=Cruisin'
TTITLE10=Wildwood Flower
TTITLE11=Big Country
EXTD=
EXTT0=
EXTT1=
EXTT2=
EXTT3=
EXTT4=
EXTT5=
EXTT6=
EXTT7=
EXTT8=
EXTT9=
EXTT10=
EXTT11=
PLAYORDER=
